<svg xmlns="http://www.w3.org/2000/svg" viewBox="2.67 0.00 896.67 295.33"><g transform="translate(0.00,0.00) scale(0.31844) translate(-93.79,-40.96)"><path fill="#D90303" fill-rule="evenodd" d="M909.98 58.38C892.07 101.5 855.74 149.6 813.45 186.09C773.31 220.59 733.01 247.45 644.27 298.87C554.71 350.78 508.93 392.08 478.91 448.48C467.96 468.88 463.32 481.48 457.85 505.86L456.69 510.51L450.55 505.37C419.53 479.33 379.23 462.57 300.94 443.17C231.12 425.92 197.61 413.48 171.24 395.4C164.94 391.09 159.96 388.1 159.96 388.6C159.96 393.58 173.07 412.32 184.84 424.26C200.77 440.35 212.21 448.64 233.77 459.26C249.03 466.89 253.67 468.71 304.26 488.12C320.18 494.25 340.42 502.71 349.04 507.02C425.67 545.34 468.79 609.53 468.3 684C468.13 706.06 467.96 706.06 462.66 682.34C460.83 674.04 456.02 661.94 449.22 648.34C422.35 594.43 383.04 563.42 300.11 530.24C189.82 486.13 140.72 444.99 115.02 375.33L108.88 358.58L107.05 365.21C93.79 412.98 108.55 471.7 144.21 512C174.39 546.33 210.88 567.4 285.19 594.1C320.02 606.71 327.98 609.86 344.4 618.48C372.1 632.91 392.83 652.15 407.92 677.2C416.05 690.63 415.39 690.96 401.79 679.85C375.91 658.79 353.36 648.83 293.98 632.41C227.47 614 191.64 596.42 164.94 569.39C153.83 557.94 152.83 557.94 156.15 568.72C162.95 592.28 178.04 617.32 196.95 636.39C223.32 663.26 252.51 678.19 301.11 690.3C350.2 702.57 379.23 717.33 395.15 738.07C435.29 790.48 407.09 851.51 327.81 883.86C319.02 887.34 311.39 890.82 310.9 891.32C309.07 893.48 350.87 890.16 367.79 886.84C447.73 871.42 507.6 819.67 531.16 745.86C538.62 722.48 540.44 710.87 540.44 686.15C540.28 660.44 538.79 650.82 529.83 620.31C521.54 592.28 519.21 575.69 520.38 553.63C522.86 503.54 549.9 454.45 595.01 418.29C619.56 398.55 641.62 384.45 699.84 351.95C784.42 304.68 826.72 275.32 864.04 237.67C897.87 203.5 919.6 166.18 927.23 129.36C930.21 114.93 929.72 73.8 926.23 61.69C923.25 50.91 919.43 40.96 918.27 40.96C917.61 40.96 913.96 48.76 909.98 58.38M912.3 228.88C897.87 255.25 867.68 289.09 839.65 310.65C807.81 335.03 773.15 354.77 702.32 388.27C647.59 414.31 618.07 432.55 594.35 455.11C561.84 486.13 544.76 522.95 544.76 562.26C544.76 577.68 548.57 601.56 551.23 601.56C551.72 601.56 554.38 595.1 556.7 586.97C567.15 552.97 590.37 523.44 624.37 500.89C647.59 485.46 658.54 480.16 741.3 445.66C833.35 407.18 897.37 346.31 914.79 280.63C918.44 266.53 921.42 220.09 918.6 220.09C917.77 220.09 914.95 224.07 912.3 228.88M720.57 559.6C690.22 564.91 647.76 581.83 604.47 605.88C592.36 612.51 559.68 631.25 558.36 632.25C558.19 632.41 559.02 637.39 560.35 643.19C561.84 649 563.33 661.11 564 669.9C564.66 678.85 565.32 686.15 565.66 686.15C565.82 686.15 575.61 679.68 587.38 671.89C697.18 598.08 776.63 581.66 808.47 626.28L811.79 631.09L794.87 636.39C741.63 652.81 693.37 687.64 627.02 756.97C545.59 842.23 487.7 880.87 408.75 902.6C371.27 912.88 349.87 915.54 306.75 915.7C256.49 915.7 223.65 911.39 171.91 897.46C159.8 894.14 149.51 891.82 149.18 892.15C148.69 892.48 153.5 896.63 159.63 901.27C242.4 963.47 336.94 983.04 439.77 958.99C484.22 948.71 522.37 931.79 564.49 903.59C606.46 875.4 631 851.85 682.75 789.81C720.73 744.37 732.01 732.26 752.74 714.85C779.45 692.45 807.98 676.7 835.01 669.23C854.75 663.93 887.75 663.93 901.19 669.23C912.14 673.55 912.3 673.38 909.81 663.6C903.51 638.55 881.62 617.49 858.23 614C851.1 613.01 850.44 612.34 845.13 602.72C825.06 566.57 776.46 549.65 720.57 559.6Z"/></g><path d="M424.4 195.6 360.1 129.2V195.6H342.1V62.4H360.1V123.2L423.1 62.4H446.5L380.5 125.9L448.4 195.6ZM466.8 195.6V104.4H484.1V195.6ZM509.5 195.6V104.4H526.7V115Q527.5 113.8 528.3 112.9Q536.3 102.5 551.5 102.5Q558.4 102.5 564 104.9Q569.5 107.3 574.3 112.9L563 124.6Q560.1 121.5 556.7 120.2Q553.2 118.8 548.6 118.8Q539 118.8 532.9 125Q526.7 131.1 526.7 143.6V195.6ZM589.9 195.6V104.4H607.2V115Q611.2 110 616.9 106.7Q624.8 102.5 634.6 102.5Q644.2 102.5 652 106.7Q659.7 110.9 664.3 118.6Q664.3 118.8 664.5 119Q664.5 118.8 664.7 118.6Q669.7 111.1 677.8 106.8Q685.8 102.5 695.4 102.5Q705.4 102.5 713.3 106.7Q721.2 110.9 725.9 118.6Q730.6 126.3 730.6 137V195.6H713.1V140.5Q713.1 130.3 706.9 124.5Q700.6 118.6 691.4 118.6Q685.1 118.6 680 121.3Q674.9 124 671.8 128.8Q668.8 133.6 668.8 140.3V195.6H651.5V140.5Q651.5 130.3 645.2 124.5Q639 118.6 629.6 118.6Q623.3 118.6 618.3 121.3Q613.3 124 610.2 128.8Q607.2 133.6 607.2 140.3V195.6ZM754 195.6V104.4H771.3V195.6ZM789.3 195.6V186.2L838.6 120.2H792.6V104.4H863.8V113.8L814.4 179.8H862.6V195.6ZM882.4 195.6V104.4H899.7V195.6Z" fill="#000"/></svg>